<svg xmlns="http://www.w3.org/2000/svg" viewBox="0 0 176.49 176.49"><defs><style>.cls-1{fill:#c03995;}.cls-1,.cls-2,.cls-3,.cls-4{fill-rule:evenodd;}.cls-2{fill:#b11f83;}.cls-3{fill:#f3b81a;}.cls-4{fill:#f48b20;}</style></defs><g id="Layer_2" data-name="Layer 2"><g id="Layer_1-2" data-name="Layer 1"><path class="cls-1" d="M88.3,0A88.25,88.25,0,1,1,0,88.3,88.21,88.21,0,0,1,88.3,0Z"/><path class="cls-2" d="M88.3,0a88.25,88.25,0,0,1,0,176.49Z"/><path class="cls-3" d="M88.3,20.13a67.66,67.66,0,0,1,30.25,7.12,43.43,43.43,0,0,0-12.12-1.67A46.32,46.32,0,1,0,152.8,72a52.12,52.12,0,0,0-.55-7.23A68.16,68.16,0,1,1,88.3,20.13Z"/><path class="cls-4" d="M88.3,20.13a67.66,67.66,0,0,1,30.25,7.12,43.43,43.43,0,0,0-12.12-1.67A44.79,44.79,0,0,0,88.3,29.36Zm0,94.42a46.81,46.81,0,0,0,18.13,3.67A46.32,46.32,0,0,0,152.8,72a52.12,52.12,0,0,0-.55-7.23A68.3,68.3,0,0,1,88.3,156.36Z"/></g></g></svg>