<svg xmlns="http://www.w3.org/2000/svg" viewBox="0 0 176.49 176.38"><defs><style>.cls-1{fill:#56b947;}.cls-1,.cls-2,.cls-3,.cls-4{fill-rule:evenodd;}.cls-2{fill:#459f46;}.cls-3{fill:#e8e85f;}.cls-4{fill:#bfd330;}</style></defs><g id="Layer_2" data-name="Layer 2"><g id="Layer_1-2" data-name="Layer 1"><path class="cls-1" d="M88.19,0A88.19,88.19,0,1,1,0,88.19,88.21,88.21,0,0,1,88.19,0Z"/><path class="cls-2" d="M88.19,0a88.19,88.19,0,1,1,0,176.38Z"/><path class="cls-3" d="M68,29.47c45.15-26.24,100.76,12.46,88,68.84-13.68,59.61-72.07,67.06-118,46.93-10.45-4.56-10-13.34-1.44-20,45-34.69,49.37-55.16,52.27-55.49,4-.45-1.23,32.14,7.89,35,9.9,3,27.14-15.46,26.69-38.92S99,28.58,68.06,33.81c-7.67,1.22-7.12-.34-.11-4.34Zm16.9,83.3c-5.78,5.11-5.22,4.89-16.34,15.12-6.23,5.67-8.12,6.9-6.9,7.23,2.78.89,26.36.22,21.8-16.79-.22-.78,1.67-3.78,2.33-5.34s-.22-.89-.89-.22Z"/><path class="cls-4" d="M88.19,22c39.81-7,78.63,28.14,67.73,76.29-8.9,38.7-36.7,55.38-67.73,56.83V70a1.8,1.8,0,0,1,.56-.22c4-.45-1.23,32.14,7.89,35,9.9,3,27.14-15.46,26.69-38.92-.33-18-14.45-30.36-35.14-32.7Z"/></g></g></svg>