<svg xmlns="http://www.w3.org/2000/svg" viewBox="0 0 176.49 176.49"><defs><style>.cls-1{fill:#78421b;}.cls-1,.cls-2,.cls-3,.cls-4{fill-rule:evenodd;}.cls-2{fill:#5b3513;}.cls-3{fill:#b56428;}.cls-4{fill:#915022;}</style></defs><g id="Layer_2" data-name="Layer 2"><g id="Layer_1-2" data-name="Layer 1"><path class="cls-1" d="M88.3,0A88.25,88.25,0,1,1,0,88.19,88.18,88.18,0,0,1,88.3,0Z"/><path class="cls-2" d="M88.3,0a88.25,88.25,0,0,1,0,176.49Z"/><path class="cls-3" d="M44,95c15.79-.22,28.69,15,22.69,29.92-4.79,11.9-17.69,14-28,7.34-10.79-6.78-21-20.24-9-31.58A22.57,22.57,0,0,1,44,95ZM109.65,23c19.58,0,17.91,32-3,30.81-19.46-1.23-18.46-27.92.22-30.7a11.54,11.54,0,0,1,2.78-.11ZM55.16,28c26.36,1.12,23.35,40.26-1.22,41.49-13,.66-23.91-8.9-21.8-22.8,1.67-10.9,12-19.13,23-18.69Zm89.19,37.26c13.46-.11,17.79,12.57,14.12,23.69-2.66,8-9.11,17.9-15.68,23.24-7.56,6.12-16.57-.11-19.12-8.56-4.34-14.24,3.22-38.59,20.68-38.37Zm-37.7,49.38c12.79-.34,22.8,13.23,22.58,25.69-.23,11.34-8.68,22.24-20.47,22.13-10-.11-16.34-7.79-15.79-17.46.22-4.23,1.56-9,2-13.46,1-7.89,1.12-17.12,11.68-16.9ZM91.75,65c18.79.11,25.13,24.69,12.45,37.47C90,116.88,66.17,102.2,71,81.74c2.34-9.56,10.9-17,20.8-16.79Z"/><path class="cls-4" d="M88.3,108.1V65.17A34.12,34.12,0,0,1,91.75,65c18.79.11,25.13,24.69,12.45,37.47a18.59,18.59,0,0,1-15.9,5.68ZM109.65,23c19.58,0,17.91,32-3,30.81-19.46-1.23-18.46-27.92.22-30.7a11.54,11.54,0,0,1,2.78-.11Zm34.7,42.26c13.46-.11,17.79,12.57,14.12,23.69-2.66,8-9.11,17.9-15.68,23.24-7.56,6.12-16.57-.11-19.12-8.56-4.34-14.24,3.22-38.59,20.68-38.37Zm-37.7,49.38c12.79-.34,22.8,13.23,22.58,25.69-.23,11.34-8.68,22.24-20.47,22.13-10-.11-16.34-7.79-15.79-17.46.22-4.23,1.56-9,2-13.46,1-7.89,1.12-17.12,11.68-16.9Z"/></g></g></svg>