<svg xmlns="http://www.w3.org/2000/svg" viewBox="0 0 176.49 176.49"><defs><style>.cls-1{fill:#b92025;}.cls-1,.cls-2,.cls-3,.cls-4{fill-rule:evenodd;}.cls-2{fill:#8f191c;}.cls-3{fill:#fff;}.cls-4{fill:#e5e6e7;}</style></defs><g id="Layer_2" data-name="Layer 2"><g id="Layer_1-2" data-name="Layer 1"><path class="cls-1" d="M88.19,0A88.25,88.25,0,1,1,0,88.3,88.23,88.23,0,0,1,88.19,0Z"/><path class="cls-2" d="M88.19,0a88.25,88.25,0,1,1,0,176.49Z"/><path class="cls-3" d="M88.19,28A38.56,38.56,0,0,1,111.66,97.2c-5.68,21.57-41.15,21.57-46.94,0A38.62,38.62,0,0,1,88.19,28ZM143,115h0a5.61,5.61,0,0,1-3.9,6.79l-29.47,7.89,29.47,7.9a5.55,5.55,0,0,1,3.9,6.78h0a5.62,5.62,0,0,1-6.79,3.89l-48-12.9-47.93,12.9a5.56,5.56,0,0,1-6.79-3.89h0a5.57,5.57,0,0,1,3.9-6.78l29.47-7.9-29.47-7.89a5.63,5.63,0,0,1-3.9-6.79h0a5.4,5.4,0,0,1,6.79-3.89l47.93,12.79,48-12.79A5.44,5.44,0,0,1,143,115ZM74.29,51.38c4.45,0,8.12,6.34,8.12,14s-3.67,14-8.12,14-8.12-6.22-8.12-14,3.56-14,8.12-14Zm27.91,0c4.56,0,8.12,6.34,8.12,14s-3.56,14-8.12,14-8.12-6.22-8.12-14,3.67-14,8.12-14ZM83.85,83.85c.89,0,1.67,1.23,1.67,2.78s-.78,2.89-1.67,2.89-1.67-1.33-1.67-2.89.78-2.78,1.67-2.78Zm8.79,0c.89,0,1.67,1.23,1.67,2.78s-.78,2.89-1.67,2.89S91,88.19,91,86.63s.67-2.78,1.67-2.78Z"/><path class="cls-4" d="M88.19,28A38.56,38.56,0,0,1,111.66,97.2c-2.78,10.79-13.13,16.12-23.47,16.12Zm0,107.32V123.89l48-12.79A5.44,5.44,0,0,1,143,115h0a5.61,5.61,0,0,1-3.9,6.79l-29.47,7.89,29.47,7.9a5.55,5.55,0,0,1,3.9,6.78h0a5.62,5.62,0,0,1-6.79,3.89Zm14-84c4.56,0,8.12,6.34,8.12,14s-3.56,14-8.12,14-8.12-6.22-8.12-14,3.67-14,8.12-14ZM92.64,83.85c.89,0,1.67,1.23,1.67,2.78s-.78,2.89-1.67,2.89S91,88.19,91,86.63s.67-2.78,1.67-2.78Z"/></g></g></svg>