<svg xmlns="http://www.w3.org/2000/svg" viewBox="0 0 176.49 176.38"><defs><style>.cls-1{fill:#c03995;}.cls-1,.cls-2,.cls-3,.cls-4{fill-rule:evenodd;}.cls-2{fill:#b11f83;}.cls-3{fill:#f3b81a;}.cls-4{fill:#f48b20;}</style></defs><g id="Layer_2" data-name="Layer 2"><g id="Layer_1-2" data-name="Layer 1"><path class="cls-1" d="M88.3,0A88.19,88.19,0,1,1,0,88.19,88.18,88.18,0,0,1,88.3,0Z"/><path class="cls-2" d="M88.3,0a88.19,88.19,0,1,1,0,176.38Z"/><path class="cls-3" d="M87.86,39.48h.77c42.15,0,76.18,39.92,76.18,48.71s-34,48.71-76.18,48.71h-.77C45.71,136.9,11.68,97,11.68,88.19s34-48.71,76.18-48.71Zm.44,27.36A21.35,21.35,0,1,1,67,88.19,21.35,21.35,0,0,1,88.3,66.84ZM88,52.05l.33.11.22-.11c32.7,0,59.17,29.69,59.17,36.14s-26.47,36.14-59.17,36.14l-.22-.11-.33.11c-32.7,0-59.17-29.69-59.17-36.14S55.27,52.05,88,52.05Z"/><path class="cls-4" d="M88.3,39.48h.33c42.15,0,76.18,39.92,76.18,48.71s-34,48.71-76.18,48.71H88.3V124.22l.22.11c32.7,0,59.17-29.69,59.17-36.14S121.22,52.05,88.52,52.05l-.22.11Zm0,70.06V66.84a21.35,21.35,0,1,1,0,42.7Z"/></g></g></svg>