<svg xmlns="http://www.w3.org/2000/svg" viewBox="0 0 176.49 176.49"><defs><style>.cls-1{fill:#1fafdf;}.cls-1,.cls-2,.cls-3,.cls-4,.cls-5{fill-rule:evenodd;}.cls-2{fill:#0a87b3;}.cls-3{fill:#c9ebf9;}.cls-4{fill:#65cdf6;}.cls-5{fill:#fff;}</style></defs><g id="Layer_2" data-name="Layer 2"><g id="Layer_1-2" data-name="Layer 1"><path class="cls-1" d="M88.19,0A88.25,88.25,0,1,1,0,88.19,88.21,88.21,0,0,1,88.19,0Z"/><path class="cls-2" d="M88.19,0a88.25,88.25,0,1,1,0,176.49Z"/><path class="cls-3" d="M124.67,32.47C108.1,34.59,90.86,41.7,76.74,51.82c-49,35.15-32.7,92.31,17,86.41,21-2.44,32.7-19,32.25-35.47-.22-8.68-3.67-15.24-11-24.13-13.23-15.8-5-33.48,11.46-42.6,4.78-2.67,3.22-4.22-1.78-3.56Z"/><path class="cls-4" d="M124.67,32.47A107,107,0,0,0,88.19,44.6v94.08a45.29,45.29,0,0,0,5.56-.45c21-2.44,32.7-19,32.25-35.47-.22-8.68-3.67-15.24-11-24.13-13.23-15.8-5-33.48,11.46-42.6,4.78-2.67,3.22-4.22-1.78-3.56Z"/><path class="cls-5" d="M104.65,77.85c3.22,0,5.78,3.22,5.78,7.23s-2.56,7.34-5.78,7.34-5.78-3.23-5.78-7.34,2.55-7.23,5.78-7.23Z"/><path class="cls-5" d="M112.32,93a2.54,2.54,0,0,1,2.23,2.78,2.5,2.5,0,0,1-2.23,2.67,2.42,2.42,0,0,1-2.11-2.67c0-1.55.89-2.78,2.11-2.78Z"/></g></g></svg>