<svg xmlns="http://www.w3.org/2000/svg" viewBox="0 0 176.49 176.49"><defs><style>.cls-1{fill:#56b947;}.cls-1,.cls-2,.cls-3,.cls-4{fill-rule:evenodd;}.cls-2{fill:#459f46;}.cls-3{fill:#e8e85f;}.cls-4{fill:#bfd330;}</style></defs><g id="Layer_2" data-name="Layer 2"><g id="Layer_1-2" data-name="Layer 1"><path class="cls-1" d="M88.19,0A88.25,88.25,0,1,1,0,88.3,88.23,88.23,0,0,1,88.19,0Z"/><path class="cls-2" d="M88.19,0a88.25,88.25,0,1,1,0,176.49Z"/><path class="cls-3" d="M105.54,61.94a36.09,36.09,0,0,1,6.56,4h0l5.89-5.9h0a3.51,3.51,0,0,1,4.9,0h0l5.89,5.9a3.48,3.48,0,0,1,0,4.89h0a3.34,3.34,0,0,1-4.78,0l-3.56-3.56-3.56,3.45a35.56,35.56,0,0,1,7.45,18.57l1-1h0a3.37,3.37,0,0,1,4.79,0h0l6,5.9a3.34,3.34,0,0,1,0,4.78h0a3.36,3.36,0,0,1-4.78,0l-3.56-3.45-3.22,3.11a52.18,52.18,0,0,1-3.79,17l4.23.11h0a3.45,3.45,0,0,1,3.45,3.34h0l-.11,8.45a3.37,3.37,0,0,1-3.45,3.33h0a3.42,3.42,0,0,1-3.34-3.33v-5l-4.11-.11c-6.67,11-17.24,18.13-29.25,18.13s-22.46-7.12-29.14-18.13l-4.11.11v5a3.42,3.42,0,0,1-3.34,3.33h0a3.37,3.37,0,0,1-3.45-3.33L48,119.11h0a3.45,3.45,0,0,1,3.45-3.34h0l4.23-.11a51.92,51.92,0,0,1-3.78-17l-3.23-3.11L45.15,99a3.36,3.36,0,0,1-4.78,0h0a3.34,3.34,0,0,1,0-4.78l6-5.9h0a3.37,3.37,0,0,1,4.79,0h0l1,1a35.56,35.56,0,0,1,7.45-18.57l-3.56-3.45-3.56,3.56a3.34,3.34,0,0,1-4.78,0h0a3.48,3.48,0,0,1,0-4.89l5.89-5.9h0a3.37,3.37,0,0,1,4.79,0h0l6,5.9h0a36.09,36.09,0,0,1,6.56-4,9.81,9.81,0,0,1-.22-1.89c0-5.89,3-12.79,8.56-16.34l-2.89-2.9-2.11,2.12a1.94,1.94,0,0,1-2.78,0h0a1.9,1.9,0,0,1,0-2.89L75,36.59h0a2.08,2.08,0,0,1,2.89,0h0l5.34,5.34a14.6,14.6,0,0,1,5-.78,14.91,14.91,0,0,1,5.12.78l5.33-5.34h0a2.09,2.09,0,0,1,2.9,0h0L105,40a1.9,1.9,0,0,1,0,2.89h0a1.94,1.94,0,0,1-2.78,0l-2.11-2.12-2.89,2.9c5.56,3.55,8.56,10.45,8.56,16.34a9.81,9.81,0,0,1-.22,1.89Z"/><path class="cls-4" d="M105.54,61.94a36.09,36.09,0,0,1,6.56,4h0l5.89-5.9h0a3.51,3.51,0,0,1,4.9,0h0l5.89,5.9a3.48,3.48,0,0,1,0,4.89h0a3.34,3.34,0,0,1-4.78,0l-3.56-3.56-3.56,3.45a35.56,35.56,0,0,1,7.45,18.57l1-1h0a3.37,3.37,0,0,1,4.79,0h0l6,5.9a3.34,3.34,0,0,1,0,4.78h0a3.36,3.36,0,0,1-4.78,0l-3.56-3.45-3.22,3.11a52.18,52.18,0,0,1-3.79,17l4.23.11h0a3.45,3.45,0,0,1,3.45,3.34h0l-.11,8.45a3.37,3.37,0,0,1-3.45,3.33h0a3.42,3.42,0,0,1-3.34-3.33v-5l-4.11-.11c-6.67,11-17.24,18.13-29.25,18.13V41.15a14.91,14.91,0,0,1,5.12.78l5.33-5.34h0a2.09,2.09,0,0,1,2.9,0h0L105,40a1.9,1.9,0,0,1,0,2.89h0a1.94,1.94,0,0,1-2.78,0l-2.11-2.12-2.89,2.9c5.56,3.55,8.56,10.45,8.56,16.34a9.81,9.81,0,0,1-.22,1.89Z"/></g></g></svg>