<svg xmlns="http://www.w3.org/2000/svg" viewBox="0 0 176.49 176.38"><defs><style>.cls-1{fill:#f3b81a;}.cls-1,.cls-2,.cls-3,.cls-4{fill-rule:evenodd;}.cls-2{fill:#f3971f;}.cls-3{fill:#fff;}.cls-4{fill:#ffcb05;}</style></defs><g id="Layer_2" data-name="Layer 2"><g id="Layer_1-2" data-name="Layer 1"><path class="cls-1" d="M88.19,0A88.19,88.19,0,1,1,0,88.19,88.21,88.21,0,0,1,88.19,0Z"/><path class="cls-2" d="M88.19,0a88.19,88.19,0,1,1,0,176.38Z"/><path class="cls-3" d="M36.81,114.21,95.42,23.58c3.89-6.12,4.78-6.9,2.78.66L84,77.51l54.5-18.68c2.33-.89,2.33,1.56,1.22,3.34L81.07,152.8c-3.89,6.12-4.78,6.9-2.78-.66L92.53,98.87,38,117.55c-2.33.89-2.33-1.56-1.22-3.34Z"/><path class="cls-4" d="M88.19,34.59l7.23-11c3.89-6.12,4.78-6.9,2.78.66l-10,37.26Zm0,41.48,50.27-17.24c2.33-.89,2.33,1.56,1.22,3.34L88.19,141.79V114.88l4.34-16-4.34,1.44Z"/></g></g></svg>