<svg xmlns="http://www.w3.org/2000/svg" viewBox="0 0 176.49 176.49"><defs><style>.cls-1{fill:#f6e294;}.cls-1,.cls-2,.cls-3,.cls-4{fill-rule:evenodd;}.cls-2{fill:#facd85;}.cls-3{fill:#1fafdf;}.cls-4{fill:#0a87b3;}</style></defs><g id="Layer_2" data-name="Layer 2"><g id="Layer_1-2" data-name="Layer 1"><path class="cls-1" d="M88.19,0A88.25,88.25,0,1,1,0,88.3,88.3,88.3,0,0,1,88.19,0Z"/><path class="cls-2" d="M88.19,0a88.25,88.25,0,1,1,0,176.49Z"/><path class="cls-3" d="M37.81,41.82C36,46.6,62.61,78.74,62.39,91.64c-.11,6.23-30.36,16.57-22.91,18.68,4.89,1.45,22.58-1.33,21.46,3.34s-13.23,22.8-9.56,21.68c7.34-2.33,23.91-13.23,33.14-26.91,3.11-4.67,4.23-4.78,7.45,0,9.12,13.79,25.69,24.58,33.14,26.91,3.56,1.12-8.45-17-9.56-21.68s16.57-1.89,21.46-3.34c7.45-2.11-22.8-12.45-22.91-18.68-.33-12.9,26.36-45,24.47-49.82C136.9,37.37,108.32,56.49,93.42,72c-5,5.12-5.9,4.67-10.35,0C68.17,56.49,39.48,37.37,37.81,41.82Z"/><path class="cls-4" d="M88.19,104.87c1.11,0,2.22,1.22,3.78,3.56,9.12,13.79,25.69,24.58,33.14,26.91,3.56,1.12-8.45-17-9.56-21.68s16.57-1.89,21.46-3.34c7.45-2.11-22.8-12.45-22.91-18.68-.33-12.9,26.36-45,24.47-49.82C136.9,37.37,108.32,56.49,93.42,72c-2.34,2.45-3.78,3.56-5.23,3.67Z"/></g></g></svg>