<svg xmlns="http://www.w3.org/2000/svg" viewBox="0 0 176.49 176.49"><defs><style>.cls-1{fill:#b92025;}.cls-1,.cls-2,.cls-3,.cls-4{fill-rule:evenodd;}.cls-2{fill:#8f191c;}.cls-3{fill:#e8e85f;}.cls-4{fill:#bfd330;}</style></defs><g id="Layer_2" data-name="Layer 2"><g id="Layer_1-2" data-name="Layer 1"><path class="cls-1" d="M88.19,0A88.25,88.25,0,1,1,0,88.3,88.23,88.23,0,0,1,88.19,0Z"/><path class="cls-2" d="M88.19,0a88.25,88.25,0,1,1,0,176.49Z"/><path class="cls-3" d="M50.93,32.81h0A10.65,10.65,0,0,1,61.5,43.48v21A10.64,10.64,0,0,1,50.93,75.07h0A10.66,10.66,0,0,1,40.26,64.5v-21A10.67,10.67,0,0,1,50.93,32.81Zm53.27,93.64a8.68,8.68,0,0,1,8.68,8.67v7a8.85,8.85,0,0,1-8.68,8.78H74.62A8.78,8.78,0,0,1,66,142.13v-7a8.68,8.68,0,0,1,8.67-8.67Zm23.25-46.71a8.78,8.78,0,0,1,8.78,8.67v24.8a8.88,8.88,0,0,1-8.78,8.79H86a8.29,8.29,0,0,1,0-16.57H96.53v-17a8.68,8.68,0,0,1,8.68-8.67ZM49,79.74a8.78,8.78,0,0,0-8.78,8.67v24.8A8.88,8.88,0,0,0,49,122H64.5a8.79,8.79,0,0,0,8.68-8.79V101h8.23a10.62,10.62,0,1,0,0-21.24Zm77.74-42.26h0a9.51,9.51,0,0,1,9.45,9.45V65.61a9.52,9.52,0,0,1-9.45,9.46h0a9.44,9.44,0,0,1-9.45-9.46V46.93a9.44,9.44,0,0,1,9.45-9.45ZM76.62,25.69h0A10.63,10.63,0,0,1,87.19,36.25V64.5A10.64,10.64,0,0,1,76.62,75.07h0A10.66,10.66,0,0,1,66,64.5V36.25A10.65,10.65,0,0,1,76.62,25.69Zm25.58,7.12h0a10.68,10.68,0,0,1,10.68,10.67v21A10.66,10.66,0,0,1,102.2,75.07h0A10.64,10.64,0,0,1,91.64,64.5v-21A10.65,10.65,0,0,1,102.2,32.81Z"/><path class="cls-4" d="M88.19,150.8V126.45h16a8.68,8.68,0,0,1,8.68,8.67v7a8.75,8.75,0,0,1-8.68,8.67Zm0-28.8V105.43h8.34v-17a8.68,8.68,0,0,1,8.68-8.67h22.24a8.78,8.78,0,0,1,8.78,8.67v24.8a8.88,8.88,0,0,1-8.78,8.79Zm0-23.47V82.18a10.53,10.53,0,0,1,0,16.35Zm38.59-61h0a9.51,9.51,0,0,1,9.45,9.45V65.61a9.52,9.52,0,0,1-9.45,9.46h0a9.44,9.44,0,0,1-9.45-9.46V46.93a9.44,9.44,0,0,1,9.45-9.45ZM102.2,32.81h0a10.68,10.68,0,0,1,10.68,10.67v21A10.66,10.66,0,0,1,102.2,75.07h0A10.64,10.64,0,0,1,91.64,64.5v-21A10.65,10.65,0,0,1,102.2,32.81Z"/></g></g></svg>