<svg xmlns="http://www.w3.org/2000/svg" viewBox="0 0 176.49 176.49"><defs><style>.cls-1{fill:#f48b20;}.cls-1,.cls-2,.cls-3,.cls-4,.cls-5{fill-rule:evenodd;}.cls-2{fill:#f37021;}.cls-3{fill:#b92025;}.cls-4{fill:#8f191c;}.cls-5{fill:#f3b81a;}</style></defs><g id="Layer_2" data-name="Layer 2"><g id="Layer_1-2" data-name="Layer 1"><path class="cls-1" d="M88.19,0A88.25,88.25,0,1,1,0,88.19,88.21,88.21,0,0,1,88.19,0Z"/><path class="cls-2" d="M88.19,0a88.25,88.25,0,1,1,0,176.49Z"/><path class="cls-3" d="M30.58,108.65c2.56.89,3.34,6.34,8.23,5.9,2.45-.23,2-.78,1-2.89C37,105.54,29.8,89.08,36,77.74c7.79-14,14.35-19.91,15-23.36s4.67,4.67,0,14c-3,5.9-1.12,10.46.66,13,3,4.11,1.89,1.66,2.23-1.56.66-6.12,3.89-18.35,18.57-26.69C92.75,41.7,76,23.35,79.29,21.8S103,28.58,109.88,53.49s-.67,32,3.33,33.59,25.58-13,28.36-18.91c.67-1.33,1.56-.89,2.34.89,2.55,5.78,3.89,24.91-10.24,37.37-1.44,1.22-2.78,2.89.12,2.67,4.67-.22,12.45-1.56,18.12-6.79,3.23-2.78,4.67-7.78,3.9.67-.56,5.78-3.79,15.24-17.58,22.58-9.56,5.11-16,15.79-26.8,22.68-11.34,7.23-27.69,8.34-40.37,4.34-16-4.89-12-17.46-28.58-25.24-8.78-4.12-12.9-14.46-13-17.8,0-.89.22-1.11,1.11-.89Z"/><path class="cls-4" d="M88.19,24.35c7.45,4.12,17.24,13.24,21.69,29.14,6.78,24.91-.67,32,3.33,33.59s25.58-13,28.36-18.91c.67-1.33,1.56-.89,2.34.89,2.55,5.78,3.89,24.91-10.24,37.37-1.44,1.22-2.78,2.89.12,2.67,4.67-.22,12.45-1.56,18.12-6.79,3.23-2.78,4.67-7.78,3.9.67-.56,5.78-3.79,15.24-17.58,22.58-9.56,5.11-16,15.79-26.8,22.68-6.56,4.23-14.9,6.34-23.24,6.68Z"/><path class="cls-5" d="M85.3,151s-15.35-.44-19.46-9,4.11-10.68.89-15.24-5.56-8.56-2.12-7.34,13,7.78,13.46,2.22-5-13.23-.11-19.12,9.9-7.46,10.12-14.46,6,4,2.45,9.56-7,7.23-1.34,11.35,7,2.33,6.67,7.34,7.23,7.78,11.46,1-2.11-16-.89-15.79,8.9,12.34,4.67,20.12c-2,3.67-1.89,5.23-1.22,6.79,8.11,18.79-9.12,23-24.58,22.57Z"/><path class="cls-1" d="M88.19,86.52c1-3.45,5.56,6.12,2.34,11.12A28.38,28.38,0,0,1,88.19,101Zm0,21.8,1,.67c5.56,4.22,7,2.33,6.67,7.34s7.23,7.78,11.46,1-2.11-16-.89-15.79,8.9,12.34,4.67,20.12c-2,3.67-1.89,5.23-1.22,6.79,7.56,17.57-7,22.35-21.69,22.57Z"/></g></g></svg>