<svg xmlns="http://www.w3.org/2000/svg" viewBox="0 0 176.49 176.49"><defs><style>.cls-1{fill:#1fafdf;}.cls-1,.cls-2,.cls-3,.cls-4{fill-rule:evenodd;}.cls-2{fill:#0a87b3;}.cls-3{fill:#fff;}.cls-4{fill:#e5e6e7;}</style></defs><g id="Layer_2" data-name="Layer 2"><g id="Layer_1-2" data-name="Layer 1"><path class="cls-1" d="M88.3,0A88.25,88.25,0,1,1,0,88.3,88.21,88.21,0,0,1,88.3,0Z"/><path class="cls-2" d="M88.3,0a88.25,88.25,0,0,1,0,176.49Z"/><path class="cls-3" d="M53.94,85.19c51.71-38.7,80.18-60.95,88.52-55.94,8.23,4.78-26.8,39.48-25.13,45.15s28.58,5.89,28.8,10.12-23.91,9.9-25.69,14.68,25.69,13.35,25.47,19.24-32.48-2.22-34.48,2,5.34,18.24.45,21.58-24.69-14.24-28.69-11.13-5,18.91-26.25,16.91c-14.24-1.34-24.91-11.9-26.36-25-1.89-17.57,10.79-28.25,23.36-37.59Z"/><path class="cls-4" d="M88.3,59.5c30.25-22.36,47.82-34,54.16-30.25,8.23,4.78-26.8,39.48-25.13,45.15s28.58,5.89,28.8,10.12-23.91,9.9-25.69,14.68,25.69,13.35,25.47,19.24-32.48-2.22-34.48,2,5.34,18.24.45,21.58c-3.89,2.55-16.24-7.12-23.58-10.46Z"/></g></g></svg>