<svg xmlns="http://www.w3.org/2000/svg" viewBox="0 0 176.49 176.38"><defs><style>.cls-1{fill:#8b7e71;}.cls-1,.cls-2,.cls-3,.cls-4{fill-rule:evenodd;}.cls-2{fill:#745c44;}.cls-3{fill:#fff;}.cls-4{fill:#e5e6e7;}</style></defs><g id="Layer_2" data-name="Layer 2"><g id="Layer_1-2" data-name="Layer 1"><path class="cls-1" d="M88.3,0A88.19,88.19,0,1,1,0,88.19,88.18,88.18,0,0,1,88.3,0Z"/><path class="cls-2" d="M88.3,0a88.19,88.19,0,1,1,0,176.38Z"/><path class="cls-3" d="M9.12,91.53c-1.22,15.34,8.12-15.24,29.8-23.25,40.15-14.79,47.05,26,61,41.26,34.69,37.7,73.84-8.78,55.82-50.38C126.56-8.79,15.57,13.23,9.12,91.53ZM154.69,113c-.55,3,.23,4,1.78,4.34,2.89.55,4.45.89,6.23,3.22s4.23,1,4.12-4c-.23-7.79-10.24-12.12-12.13-3.56Zm-63.94,17.9c-.11,3.79,3.78,2.67,6,2.45a3,3,0,0,1,2.56.78c2,2.34,4-.67,7.34.78,7.67,3.22,4.78-13.46-5.23-13.9-4.56-.23-10.45,2.55-10.67,9.89Zm36.81-21.24c-5.67,6.68-16.79,2.67-22.35-2.22A13.09,13.09,0,0,1,103.54,89c5.78-6.79,29.8,14.12,24,20.68Zm13.68-1.22c4.11-.44,9.23-6,10.45-11.23,1.45-5.9-1.67-11.57-6.89-12.68-8.34-1.56-11.68,24.69-3.56,23.91Z"/><path class="cls-4" d="M88.3,91.41c3.89,6.9,7.45,13.57,11.57,18.13,34.69,37.7,73.84-8.78,55.82-50.38-12.45-29-39.7-41.59-67.39-40.48ZM154.69,113c-.55,3,.23,4,1.78,4.34,2.89.55,4.45.89,6.23,3.22s4.23,1,4.12-4c-.23-7.79-10.24-12.12-12.13-3.56Zm-63.94,17.9c-.11,3.79,3.78,2.67,6,2.45a3,3,0,0,1,2.56.78c2,2.34,4-.67,7.34.78,7.67,3.22,4.78-13.46-5.23-13.9-4.56-.23-10.45,2.55-10.67,9.89Zm36.81-21.24c-5.67,6.68-16.79,2.67-22.35-2.22A13.09,13.09,0,0,1,103.54,89c5.78-6.79,29.8,14.12,24,20.68Zm13.68-1.22c4.11-.44,9.23-6,10.45-11.23,1.45-5.9-1.67-11.57-6.89-12.68-8.34-1.56-11.68,24.69-3.56,23.91Z"/></g></g></svg>