<svg xmlns="http://www.w3.org/2000/svg" viewBox="0 0 176.49 176.49"><defs><style>.cls-1{fill:#56b947;}.cls-1,.cls-2,.cls-3,.cls-4{fill-rule:evenodd;}.cls-2{fill:#459f46;}.cls-3{fill:#e8e85f;}.cls-4{fill:#bfd330;}</style></defs><g id="Layer_2" data-name="Layer 2"><g id="Layer_1-2" data-name="Layer 1"><path class="cls-1" d="M88.19,0A88.25,88.25,0,1,1,0,88.19,88.21,88.21,0,0,1,88.19,0Z"/><path class="cls-2" d="M88.19,0a88.25,88.25,0,1,1,0,176.49Z"/><path class="cls-3" d="M84.41,26.13c-17.24,14-68.06,77.07-8.56,110.21,13.12,7.34,8.78,23.14,8.78,23.14a24.94,24.94,0,0,0,7,0s-4.34-15.68,8.78-23.14C168,97.75,104.87,72.73,92,26.25c-1.11-4-4.56-2.56-7.56-.12Z"/><path class="cls-4" d="M88.19,159.7a27.16,27.16,0,0,0,3.45-.22s-4.34-15.68,8.78-23.14C168,97.75,104.87,72.73,92,26.25c-.67-2.34-2.11-2.78-3.78-2.34Z"/></g></g></svg>