<svg xmlns="http://www.w3.org/2000/svg" viewBox="0 0 176.49 176.38"><defs><style>.cls-1{fill:#65cdf6;}.cls-1,.cls-2,.cls-3,.cls-4{fill-rule:evenodd;}.cls-2{fill:#1fafdf;}.cls-3{fill:#fff;}.cls-4{fill:#c9ebf9;}</style></defs><g id="Layer_2" data-name="Layer 2"><g id="Layer_1-2" data-name="Layer 1"><path class="cls-1" d="M88.19,0A88.19,88.19,0,1,1,0,88.19,88.21,88.21,0,0,1,88.19,0Z"/><path class="cls-2" d="M88.19,0a88.19,88.19,0,1,1,0,176.38Z"/><path class="cls-3" d="M88,24.36h0a5.43,5.43,0,0,1,5.34,5.44v5.34l1.77-1.78a5.45,5.45,0,0,1,7.68,0h0a5.67,5.67,0,0,1,0,7.68l-9.45,9.34V79L118.44,64.5l3.45-12.79a5.42,5.42,0,0,1,6.56-3.89h0a5.49,5.49,0,0,1,3.89,6.67l-.67,2.34,4.67-2.67a5.23,5.23,0,0,1,7.34,2h0a5.29,5.29,0,0,1-1.89,7.34l-4.67,2.67,2.34.67a5.36,5.36,0,0,1,3.78,6.56h0a5.37,5.37,0,0,1-6.56,3.89l-12.79-3.45L99.42,88l24,13.9,12.79-3.45a5.5,5.5,0,0,1,6.68,3.89h0a5.47,5.47,0,0,1-3.79,6.57l-2.44.66,4.67,2.67a5.42,5.42,0,0,1,2,7.34h0a5.33,5.33,0,0,1-7.45,2l-4.56-2.67.56,2.34a5.43,5.43,0,0,1-3.79,6.67h0a5.49,5.49,0,0,1-6.67-3.89l-3.33-12.79L93.31,97v29l9.45,9.34a5.67,5.67,0,0,1,0,7.68h0a5.45,5.45,0,0,1-7.68,0l-1.77-1.78v5.34A5.43,5.43,0,0,1,88,152h0a5.45,5.45,0,0,1-5.45-5.44v-5.34L80.74,143a5.31,5.31,0,0,1-7.56,0h0a5.43,5.43,0,0,1,0-7.68L82.52,126V97.75L58.39,111.66l-3.34,12.78a5.43,5.43,0,0,1-6.67,3.79h0a5.37,5.37,0,0,1-3.78-6.57l.55-2.44L40.48,122a5.43,5.43,0,0,1-7.34-2h0a5.57,5.57,0,0,1,2-7.45l4.56-2.67-2.33-.56a5.51,5.51,0,0,1-3.78-6.67h0a5.57,5.57,0,0,1,6.67-3.89l12.79,3.44L77.74,88,52.6,73.51,39.81,77a5.42,5.42,0,0,1-6.56-3.89h0A5.43,5.43,0,0,1,37,66.39l2.34-.55L34.7,63.17a5.44,5.44,0,0,1-1.89-7.45h0a5.43,5.43,0,0,1,7.34-2l4.67,2.67-.67-2.33a5.45,5.45,0,0,1,3.78-6.56h0a5.42,5.42,0,0,1,6.67,3.78l3.45,12.79L82.52,78.18V50.38L73.18,41a5.43,5.43,0,0,1,0-7.68h0a5.31,5.31,0,0,1,7.56,0l1.78,1.78V29.8A5.45,5.45,0,0,1,88,24.36Z"/><path class="cls-4" d="M88.19,24.36a5.39,5.39,0,0,1,5.12,5.44v5.34l1.77-1.78a5.45,5.45,0,0,1,7.68,0h0a5.67,5.67,0,0,1,0,7.68l-9.45,9.34V79L118.44,64.5l3.45-12.79a5.42,5.42,0,0,1,6.56-3.89h0a5.49,5.49,0,0,1,3.89,6.67l-.67,2.34,4.67-2.67a5.23,5.23,0,0,1,7.34,2h0a5.29,5.29,0,0,1-1.89,7.34l-4.67,2.67,2.34.67a5.36,5.36,0,0,1,3.78,6.56h0a5.37,5.37,0,0,1-6.56,3.89l-12.79-3.45L99.42,88l24,13.9,12.79-3.45a5.5,5.5,0,0,1,6.68,3.89h0a5.47,5.47,0,0,1-3.79,6.57l-2.44.66,4.67,2.67a5.42,5.42,0,0,1,2,7.34h0a5.33,5.33,0,0,1-7.45,2l-4.56-2.67.56,2.34a5.43,5.43,0,0,1-3.79,6.67h0a5.49,5.49,0,0,1-6.67-3.89l-3.33-12.79L93.31,97v29l9.45,9.34a5.67,5.67,0,0,1,0,7.68h0a5.45,5.45,0,0,1-7.68,0l-1.77-1.78v5.34A5.39,5.39,0,0,1,88.19,152Z"/></g></g></svg>