<svg xmlns="http://www.w3.org/2000/svg" viewBox="0 0 176.49 176.49"><defs><style>.cls-1{fill:#533e28;}.cls-1,.cls-2,.cls-3,.cls-4{fill-rule:evenodd;}.cls-2{fill:#352414;}.cls-3{fill:#8b7e71;}.cls-4{fill:#745c44;}</style></defs><g id="Layer_2" data-name="Layer 2"><g id="Layer_1-2" data-name="Layer 1"><path class="cls-1" d="M88.19,0A88.25,88.25,0,1,1,0,88.19,88.28,88.28,0,0,1,88.19,0Z"/><path class="cls-2" d="M88.19,0a88.25,88.25,0,1,1,0,176.49Z"/><path class="cls-3" d="M90.19,131.78l36.15-62.94a2.28,2.28,0,0,0-2-3.45l-72.51.22c-2.22,0-3.11,1.56-2,3.45L86.3,131.78c1.11,2,2.67,2,3.89,0ZM75.51,158.7l-16.68-9.57a4.93,4.93,0,0,1-2.67-4.56v-8.89c0-3.34,1.56-3.78,4.12-2.23l22.46,12.9a10.06,10.06,0,0,0,10.57,0l22.35-12.9c2.67-1.55,4.22-1.11,4.22,2.23v8.89a4.92,4.92,0,0,1-2.66,4.56l-16.8,9.57c-8.23,4.89-16.57,4.89-24.91,0Zm79.63-94.09V84a4.84,4.84,0,0,1-2.56,4.56L144.8,93c-2.9,1.67-4,.56-4-2.44V64.61a10,10,0,0,0-5.34-9.12l-22.35-13c-2.67-1.44-3.11-3-.22-4.67l7.78-4.56a4.94,4.94,0,0,1,5.23.11L142.68,43c8.23,4.78,12.46,12,12.46,21.57ZM33.81,42.82l16.68-9.68A4.94,4.94,0,0,1,55.72,33l7.78,4.45c2.89,1.67,2.45,3.33-.11,4.78L40.93,55.16a10.28,10.28,0,0,0-5.23,9.23v25.8c0,3-1.22,4.23-4,2.56L23.91,88.3a4.91,4.91,0,0,1-2.56-4.67V64.39c0-9.56,4.12-16.79,12.46-21.57Z"/><path class="cls-4" d="M90.19,131.78l36.15-62.94a2.28,2.28,0,0,0-2-3.45l-36.14.11v67.84a2.58,2.58,0,0,0,2-1.56Zm-2,16v14.57a24.41,24.41,0,0,0,12.23-3.67l16.8-9.57a4.92,4.92,0,0,0,2.66-4.56v-8.89c0-3.34-1.55-3.78-4.22-2.23l-22.35,12.9a9.85,9.85,0,0,1-5.12,1.45Zm66.95-83.19V84a4.84,4.84,0,0,1-2.56,4.56L144.8,93c-2.9,1.67-4,.56-4-2.44V64.61a10,10,0,0,0-5.34-9.12l-22.35-13c-2.67-1.44-3.11-3-.22-4.67l7.78-4.56a4.94,4.94,0,0,1,5.23.11L142.68,43c8.23,4.78,12.46,12,12.46,21.57Z"/></g></g></svg>